<?xml version="1.0" encoding="UTF-8" standalone="no"?>
<!-- Created with Inkscape (http://www.inkscape.org/) -->

<svg
   version="1.1"
   id="svg2"
   width="603.22845"
   height="539.37128"
   viewBox="0 0 603.22846 539.37128"
   sodipodi:docname="creatediary_2.svg"
   inkscape:version="1.1.2 (0a00cf5339, 2022-02-04)"
   xmlns:inkscape="http://www.inkscape.org/namespaces/inkscape"
   xmlns:sodipodi="http://sodipodi.sourceforge.net/DTD/sodipodi-0.dtd"
   xmlns="http://www.w3.org/2000/svg"
   xmlns:svg="http://www.w3.org/2000/svg">
  <defs
     id="defs6">
    <filter
       style="color-interpolation-filters:sRGB"
       inkscape:label="Drop Shadow"
       id="filter865"
       x="-0.011356236"
       y="-0.015455047"
       width="1.0136963"
       height="1.0180871">
      <feFlood
         flood-opacity="0.498039"
         flood-color="rgb(0,0,0)"
         result="flood"
         id="feFlood855" />
      <feComposite
         in="flood"
         in2="SourceGraphic"
         operator="in"
         result="composite1"
         id="feComposite857" />
      <feGaussianBlur
         in="composite1"
         stdDeviation="0.578123"
         result="blur"
         id="feGaussianBlur859" />
      <feOffset
         dx="-5.34599"
         dy="-6.75972"
         result="offset"
         id="feOffset861" />
      <feComposite
         in="offset"
         in2="offset"
         operator="atop"
         result="composite2"
         id="feComposite863" />
    </filter>
  </defs>
  <sodipodi:namedview
     id="namedview4"
     pagecolor="#ffffff"
     bordercolor="#666666"
     borderopacity="1.0"
     inkscape:pageshadow="2"
     inkscape:pageopacity="0.0"
     inkscape:pagecheckerboard="0"
     showgrid="false"
     inkscape:zoom="0.14553003"
     inkscape:cx="292.03594"
     inkscape:cy="322.95739"
     inkscape:window-width="1920"
     inkscape:window-height="1022"
     inkscape:window-x="0"
     inkscape:window-y="0"
     inkscape:window-maximized="1"
     inkscape:current-layer="g8"
     fit-margin-top="0"
     fit-margin-left="0"
     fit-margin-right="0"
     fit-margin-bottom="0"
     inkscape:snap-global="false" />
  <g
     inkscape:groupmode="layer"
     inkscape:label="Image"
     id="g8"
     transform="translate(-2168.0566,-125.91014)">
    <path
       id="path853"
       style="fill:#4393b0;fill-opacity:1;filter:url(#filter865)"
       d="m 2473.8065,136.73829 c -13.8198,0.007 -27.8405,0.61253 -37.3496,1.81445 -70.9901,8.97291 -133.2101,40.07319 -182.5,91.22266 -39.2034,40.68238 -62.7862,86.59623 -72.875,141.8789 -3.2718,17.92822 -4.1172,27.90761 -4.1172,48.5 0.01,47.17998 12.4511,91.27026 38.8067,137.5 21.0642,36.94817 52.4084,71.15402 89.6855,97.8711 6.6,4.73033 12.2889,8.49503 12.6407,8.36523 0.8612,-0.31768 13.8649,-16.90456 13.8359,-17.64844 -0.012,-0.32291 -3.5,-3.19419 -7.75,-6.38086 -2.4355,-1.82618 -2.6667,-2.10604 -4.2539,-3.31836 a 274.52966,261.73795 0 0 1 -117.4707,-264.62304 274.52966,261.73795 0 0 1 314.8633,-210.66016 274.52966,261.73795 0 0 1 227.9804,286.28516 c -0.018,0.17398 -0.018,0.80934 -0.037,0.94726 l -0.8086,5.83789 -0.016,-0.0234 a 274.52966,261.73795 0 0 1 -0.4102,3.2207 274.52966,261.73795 0 0 1 -105.8398,169.76172 l 1.0957,0.50586 -10.6934,8.34765 c -5.8808,4.59071 -10.5667,8.67106 -10.414,9.06836 0.7563,1.96717 12.3867,17.87435 13.0918,17.90625 0.4475,0.0203 5.3342,-3.16652 10.8594,-7.08398 102.6225,-72.76095 150.1048,-197.18737 117.6835,-308.37891 -10.6032,-36.36492 -25.9478,-66.42813 -49.2402,-96.46679 -10.1087,-13.03659 -33.8749,-37.04176 -47.1035,-47.57813 -44.501,-35.44438 -95.7653,-57.18124 -153.5137,-65.0918 -8.7113,-1.19329 -22.3305,-1.78584 -36.1504,-1.77929 z m -141.5644,78.59375 -3.0137,1.60351 c -3.2674,1.73834 -5.5821,4.23361 -7.459,8.03906 l -1.1972,2.42579 v 188.77929 188.77735 l 1.1347,2.6582 c 2.2156,5.19142 6.6124,9.31835 10.8985,10.23242 1.2591,0.26851 64.3645,0.51804 140.2343,0.55274 124.4444,0.0568 138.2206,-0.0263 140.7735,-0.84766 5.5445,-1.78393 9.7368,-5.93676 11.6836,-11.57422 1.0637,-3.0803 1.0669,-3.88498 0.9316,-189.68555 l -0.1348,-186.59375 -1.4257,-2.92578 c -1.89,-3.88073 -6.5751,-8.4432 -10.3789,-10.10742 l -3.0469,-1.33398 h -139.5 z m -6.6016,11.78125 c 0.4045,0 0.4596,0.34352 0.1602,1.00586 -0.7032,1.55582 -0.8945,372.33106 -0.1934,374.96289 0.3398,1.27605 1.3181,2.79231 2.4102,3.73632 1.0104,0.8736 1.8379,1.78249 1.8379,2.01954 0,0.23706 -0.3829,0.42968 -0.8496,0.42968 -1.3703,0 -4.2974,-3.59993 -4.9278,-6.06054 -0.417,-1.62725 -0.5859,-54.73109 -0.5859,-187.18946 0,-160.1824 0.1,-185.1858 0.7656,-186.91211 0.4227,-1.09607 1.0449,-1.99218 1.3828,-1.99218 z m 27.5528,0.5625 125.0468,0.15039 c 118.0222,0.14118 125.1775,0.20578 127.3868,1.16211 3.8027,1.64605 6.6965,4.62819 8.6386,8.90234 l 1.75,3.85156 0.1563,174.13672 c 0.1154,128.51973 0,175.03794 -0.4492,177.57227 -0.3324,1.88863 -1.0466,4.37384 -1.5879,5.52343 -1.4509,3.08117 -5.9983,7.24646 -9.1778,8.40625 -2.5604,0.93397 -10.4454,1.0002 -124.7285,1.0625 -67.0979,0.0366 -123.1299,-0.0352 -124.5156,-0.16015 l -2.5195,-0.22852 V 417.86524 Z m 127.3378,134.48437 c -11.1465,0 -12.2214,0.0886 -13.373,1.09961 l -1.252,1.09961 -0.043,17.43359 c -0.024,9.58855 -0.084,17.88634 -0.1328,18.43946 -0.083,0.93137 -1.1805,1.00586 -14.8692,1.00586 -14.1497,0 -14.8398,0.0512 -16.1777,1.1914 l -1.3965,1.18946 v 13.35351 c 0,10.61998 0.1538,13.58157 0.752,14.46875 0.71,1.05273 1.6177,1.12639 16.1211,1.28516 l 15.3671,0.16797 0.3106,6.72656 c 0.1708,3.70027 0.2859,12.61892 0.2539,19.81836 -0.051,11.80894 0.035,13.20036 0.8887,14.22265 0.8916,1.06728 1.6803,1.13282 13.5644,1.13282 12.4375,0 12.6295,-0.0184 13.4434,-1.27735 0.7083,-1.09567 0.8261,-4.07627 0.8261,-20.97461 v -19.69922 h 15.045 c 14.4178,10e-6 15.1041,-0.0481 16.4433,-1.18945 l 1.3985,-1.1914 v -13.375 c 0,-12.86288 -0.044,-13.41585 -1.1172,-14.46875 -1.034,-1.01452 -2.2373,-1.10552 -16.4414,-1.26172 l -15.3282,-0.16992 v -18.25586 c 0,-17.57808 -0.041,-18.30269 -1.082,-19.51368 -1.0517,-1.2229 -1.416,-1.25781 -13.2012,-1.25781 z" />
    <path
       id="path827"
       style="fill:#0099ff;fill-opacity:1"
       d="m 2464.8984,125.91016 c -13.8198,0.007 -27.8405,0.61253 -37.3496,1.81445 -70.9901,8.97291 -133.2101,40.07319 -182.5,91.22266 -39.2034,40.68238 -62.7862,86.59623 -72.875,141.8789 -3.2718,17.92822 -4.1172,27.90761 -4.1172,48.5 0.01,47.17998 12.4511,91.27026 38.8067,137.5 21.0642,36.94817 52.4084,71.15402 89.6855,97.8711 6.6,4.73033 12.2889,8.49503 12.6407,8.36523 0.8612,-0.31768 13.8649,-16.90456 13.8359,-17.64844 -0.012,-0.32291 -3.5,-3.19419 -7.75,-6.38086 -2.4355,-1.82618 -2.6667,-2.10604 -4.2539,-3.31836 A 274.52966,261.73795 0 0 1 2193.5508,361.0918 274.52966,261.73795 0 0 1 2508.4141,150.43164 274.52966,261.73795 0 0 1 2736.3945,436.7168 c -0.018,0.17398 -0.018,0.80934 -0.037,0.94726 l -0.8086,5.83789 -0.016,-0.0234 a 274.52966,261.73795 0 0 1 -0.4102,3.2207 274.52966,261.73795 0 0 1 -105.8398,169.76172 l 1.0957,0.50586 -10.6934,8.34765 c -5.8808,4.59071 -10.5667,8.67106 -10.414,9.06836 0.7563,1.96717 12.3867,17.87435 13.0918,17.90625 0.4475,0.0203 5.3342,-3.16652 10.8594,-7.08398 102.6225,-72.76095 150.1048,-197.18737 117.6835,-308.37891 -10.6032,-36.36492 -25.9478,-66.42813 -49.2402,-96.46679 -10.1087,-13.03659 -33.8749,-37.04176 -47.1035,-47.57813 -44.501,-35.44438 -95.7653,-57.18124 -153.5137,-65.0918 -8.7113,-1.19329 -22.3305,-1.78584 -36.1504,-1.77929 z m -141.5644,78.59375 -3.0137,1.60351 c -3.2674,1.73834 -5.5821,4.23361 -7.459,8.03906 l -1.1972,2.42579 v 188.77929 188.77735 l 1.1347,2.6582 c 2.2156,5.19142 6.6124,9.31835 10.8985,10.23242 1.2591,0.26851 64.3645,0.51804 140.2343,0.55274 124.4444,0.0568 138.2206,-0.0263 140.7735,-0.84766 5.5445,-1.78393 9.7368,-5.93676 11.6836,-11.57422 1.0637,-3.0803 1.0669,-3.88498 0.9316,-189.68555 l -0.1348,-186.59375 -1.4257,-2.92578 c -1.89,-3.88073 -6.5751,-8.4432 -10.3789,-10.10742 l -3.0469,-1.33398 h -139.5 z m -6.6016,11.78125 c 0.4045,0 0.4596,0.34352 0.1602,1.00586 -0.7032,1.55582 -0.8945,372.33106 -0.1934,374.96289 0.3398,1.27605 1.3181,2.79231 2.4102,3.73632 1.0104,0.8736 1.8379,1.78249 1.8379,2.01954 0,0.23706 -0.3829,0.42968 -0.8496,0.42968 -1.3703,0 -4.2974,-3.59993 -4.9278,-6.06054 -0.417,-1.62725 -0.5859,-54.73109 -0.5859,-187.18946 0,-160.1824 0.1,-185.1858 0.7656,-186.91211 0.4227,-1.09607 1.0449,-1.99218 1.3828,-1.99218 z m 27.5528,0.5625 125.0468,0.15039 c 118.0222,0.14118 125.1775,0.20578 127.3868,1.16211 3.8027,1.64605 6.6965,4.62819 8.6386,8.90234 l 1.75,3.85156 0.1563,174.13672 c 0.1154,128.51973 0,175.03794 -0.4492,177.57227 -0.3324,1.88863 -1.0466,4.37384 -1.5879,5.52343 -1.4509,3.08117 -5.9983,7.24646 -9.1778,8.40625 -2.5604,0.93397 -10.4454,1.0002 -124.7285,1.0625 -67.0979,0.0366 -123.1299,-0.0352 -124.5156,-0.16015 l -2.5195,-0.22852 V 407.03711 Z m 127.3378,134.48437 c -11.1465,0 -12.2214,0.0886 -13.373,1.09961 l -1.252,1.09961 -0.043,17.43359 c -0.024,9.58855 -0.084,17.88634 -0.1328,18.43946 -0.083,0.93137 -1.1805,1.00586 -14.8692,1.00586 -14.1497,0 -14.8398,0.0512 -16.1777,1.1914 l -1.3965,1.18946 v 13.35351 c 0,10.61998 0.1538,13.58157 0.752,14.46875 0.71,1.05273 1.6177,1.12639 16.1211,1.28516 l 15.3671,0.16797 0.3106,6.72656 c 0.1708,3.70027 0.2859,12.61892 0.2539,19.81836 -0.051,11.80894 0.035,13.20036 0.8887,14.22265 0.8916,1.06728 1.6803,1.13282 13.5644,1.13282 12.4375,0 12.6295,-0.0184 13.4434,-1.27735 0.7083,-1.09567 0.8261,-4.07627 0.8261,-20.97461 v -19.69922 h 15.045 c 14.4178,10e-6 15.1041,-0.0481 16.4433,-1.18945 l 1.3985,-1.1914 v -13.375 c 0,-12.86288 -0.044,-13.41585 -1.1172,-14.46875 -1.034,-1.01452 -2.2373,-1.10552 -16.4414,-1.26172 l -15.3282,-0.16992 v -18.25586 c 0,-17.57808 -0.041,-18.30269 -1.082,-19.51368 -1.0517,-1.2229 -1.416,-1.25781 -13.2012,-1.25781 z" />
  </g>
</svg>
