<?xml version="1.0" encoding="UTF-8" standalone="no"?>
<!-- Created with Inkscape (http://www.inkscape.org/) -->

<svg
   width="165.2659mm"
   height="149.28236mm"
   viewBox="0 0 165.2659 149.28236"
   version="1.1"
   id="svg864"
   sodipodi:docname="opendiary_2.svg"
   inkscape:version="1.1.2 (0a00cf5339, 2022-02-04)"
   xmlns:inkscape="http://www.inkscape.org/namespaces/inkscape"
   xmlns:sodipodi="http://sodipodi.sourceforge.net/DTD/sodipodi-0.dtd"
   xmlns="http://www.w3.org/2000/svg"
   xmlns:svg="http://www.w3.org/2000/svg">
  <sodipodi:namedview
     id="namedview13"
     pagecolor="#ffffff"
     bordercolor="#666666"
     borderopacity="1.0"
     inkscape:pageshadow="2"
     inkscape:pageopacity="0.0"
     inkscape:pagecheckerboard="0"
     inkscape:document-units="mm"
     showgrid="false"
     inkscape:zoom="0.74705325"
     inkscape:cx="325.94731"
     inkscape:cy="333.30957"
     inkscape:window-width="1920"
     inkscape:window-height="1022"
     inkscape:window-x="0"
     inkscape:window-y="0"
     inkscape:window-maximized="1"
     inkscape:current-layer="svg864" />
  <defs
     id="defs861">
    <filter
       style="color-interpolation-filters:sRGB"
       id="filter1271"
       x="-0.043764454"
       y="-0.059369488"
       width="1.0534528"
       height="1.0703029">
      <feFlood
         flood-opacity="0.498039"
         flood-color="rgb(0,0,0)"
         result="flood"
         id="feFlood1261" />
      <feComposite
         in="flood"
         in2="SourceGraphic"
         operator="in"
         result="composite1"
         id="feComposite1263" />
      <feGaussianBlur
         in="composite1"
         stdDeviation="0.578123"
         result="blur"
         id="feGaussianBlur1265" />
      <feOffset
         dx="-5.34599"
         dy="-6.75972"
         result="offset"
         id="feOffset1267" />
      <feComposite
         in="offset"
         in2="offset"
         operator="atop"
         result="composite2"
         id="feComposite1269" />
    </filter>
  </defs>
  <g
     id="layer1"
     transform="translate(-22.948809,-88.357411)"
     style="fill:#0099ff;fill-opacity:1">
    <path
       style="fill:#0099ff;fill-opacity:1;stroke:#000000;stroke-width:0.264583;stroke-opacity:1;filter:url(#filter1271)"
       d="m 63.811368,233.90061 c -9.86288,-7.06889 -18.15639,-16.11924 -23.72962,-25.89511 -6.97327,-12.23162 -10.2655,-23.89717 -10.26716,-36.38021 -8e-4,-5.4484 0.22334,-8.08878 1.08901,-12.83229 2.66932,-14.62687 8.90916,-26.77498 19.28173,-37.53886 13.0413,-13.5333 29.50368,-21.762092 48.28646,-24.136172 5.031912,-0.63602 14.837142,-0.64066 19.446872,-0.009 15.27929,2.093 28.84286,7.844132 40.61708,17.222122 3.50006,2.78775 9.78807,9.13925 12.46267,12.58851 6.16277,7.94773 10.22305,15.90205 13.0285,25.5236 8.57813,29.41943 -3.9853,62.34017 -31.13748,81.59151 -1.46188,1.03649 -2.75482,1.88015 -2.87322,1.87479 -0.18656,-0.008 -3.26363,-4.21747 -3.46374,-4.73795 -0.0404,-0.10512 1.19958,-1.18491 2.75554,-2.39954 l 2.82903,-2.20841 -1.03575,-0.47931 c -5.33054,-2.46677 -10.92699,-5.22369 -12.62658,-6.22009 -2.41735,-1.4172 -4.62807,-3.35377 -5.3421,-4.67964 l -0.50425,-0.93634 -2.12933,0.14757 c -1.17113,0.0812 -3.80466,0.35363 -5.85229,0.60547 -3.68325,0.45302 -3.73755,0.46944 -5.09117,1.53941 -4.93832,3.90352 -8.81286,4.90139 -13.22757,3.40671 -1.90852,-0.64616 -4.47126,-2.05863 -6.533292,-3.60086 -1.03685,-0.77548 -2.829,-1.19853 -8.35513,-1.9723 l -1.21138,-0.16962 -0.81767,1.31536 c -1.42431,2.29124 -3.3875,3.28152 -17.92624,9.0425 -2.91042,1.15325 -5.46391,2.20751 -5.67441,2.34279 -0.44016,0.28287 -0.34153,0.37798 2.95639,2.8508 1.12446,0.84314 2.0472,1.60289 2.05052,1.68832 0.008,0.19682 -3.43331,4.58554 -3.66118,4.66959 -0.0931,0.0343 -1.59799,-0.96157 -3.34424,-2.21314 z M 107.8645,178.42714 v -33.41482 l -1.65439,-0.96777 c -10.296652,-6.02329 -21.038592,-8.33502 -35.325392,-7.60226 -4.36468,0.22387 -9.89097,0.822 -11.24054,1.21661 -0.43756,0.12794 -0.46302,1.83834 -0.46302,31.11023 v 30.97485 l 1.52135,-0.18216 c 8.60841,-1.03072 17.12146,-0.57536 24.90482,1.33214 7.75956,1.90167 14.464652,5.00249 19.875922,9.19178 1.23692,0.9576 2.27872,1.7445 2.3151,1.74866 0.0364,0.004 0.0661,-15.02911 0.0661,-33.40726 z m -29.209912,3.71316 c -3.04133,-1.92695 -5.76551,-3.82061 -6.05373,-4.20812 -0.91315,-1.22773 0.0692,-3.13189 1.61581,-3.13189 0.69766,0 4.06862,1.93284 7.97971,4.57541 0.79842,0.53946 1.61507,0.98084 1.81478,0.98084 0.1997,0 1.41624,-0.77298 2.70341,-1.71774 3.56997,-2.62029 5.5565,-3.83851 6.25938,-3.83851 0.94437,0 1.54843,0.41149 1.91964,1.30767 0.58015,1.40059 0.20261,1.97058 -2.57554,3.88846 -1.41763,0.97866 -3.79847,2.65067 -5.29076,3.71558 -1.49228,1.06492 -2.74244,1.93523 -2.77812,1.93403 -0.0357,-0.001 -2.55325,-1.57878 -5.59458,-3.50573 z m 3.90085,-6.29263 c -3.98495,-0.7884 -6.63323,-4.24523 -6.37658,-8.32342 0.19694,-3.12933 1.71385,-5.36725 4.49257,-6.62796 4.14637,-1.88121 8.67053,-0.29038 10.56549,3.71514 1.00503,2.12442 1.05738,4.89442 0.13005,6.88157 -0.63049,1.35105 -2.1926,2.97078 -3.5342,3.66455 -0.64652,0.33433 -3.59594,1.02022 -4.02781,0.93667 -0.0824,-0.016 -0.64469,-0.12689 -1.24952,-0.24655 z m 3.06151,-5.13677 c 0.76995,-0.39815 1.61004,-1.81975 1.61004,-2.72449 0,-0.93383 -1.14935,-2.29384 -2.26808,-2.68379 -0.93799,-0.32694 -1.1671,-0.31883 -1.98738,0.0704 -1.64509,0.78065 -2.25677,2.54273 -1.43459,4.13266 0.79112,1.52985 2.48476,2.03014 4.08001,1.2052 z m 8.02675,-15.23594 c -5.33887,-1.34233 -12.57459,-1.93576 -19.43905,-1.5943 -1.97031,0.098 -2.38511,0.0438 -2.84427,-0.37174 -0.71845,-0.65018 -0.72818,-2.2666 -0.0175,-2.90974 1.15327,-1.04369 11.10694,-1.19785 17.20705,-0.2665 4.51568,0.68944 9.2911,1.91461 9.978,2.55993 0.80469,0.75596 0.78614,1.90717 -0.0441,2.73742 -0.79462,0.79462 -1.10199,0.78478 -4.8401,-0.15507 z m 19.460432,54.95371 c 7.03155,-5.60868 16.76262,-9.39085 28.09787,-10.92078 4.08132,-0.55087 13.20934,-0.57197 17.02762,-0.0394 1.79698,0.25065 2.64083,0.277 2.71394,0.0847 0.0584,-0.15346 0.0755,-14.09027 0.038,-30.97069 l -0.0681,-30.69166 -3.0427,-0.44389 c -7.72272,-1.12662 -17.68384,-1.15839 -24.62895,-0.0785 -3.54717,0.55153 -9.29849,1.98456 -12.07493,3.00867 -2.94028,1.08453 -7.4218,3.21832 -8.91041,4.24251 l -1.21696,0.83729 v 33.1925 c 0,18.25587 0.0659,33.1925 0.1464,33.1925 0.0805,0 0.94373,-0.63598 1.91823,-1.41329 z m 7.36376,-17.39133 c -0.87684,-0.68972 -0.91893,-1.8198 -0.10183,-2.73406 1.28984,-1.44322 10.22624,-3.40344 17.72681,-3.88842 6.08091,-0.39319 7.50177,-0.28084 8.30842,0.65694 0.79924,0.92918 0.78947,1.87212 -0.0279,2.68947 -0.63102,0.63103 -0.76047,0.64944 -4.56568,0.64944 -6.18698,0 -13.68726,1.09304 -18.23379,2.65728 -1.89175,0.65086 -2.24407,0.64738 -3.10604,-0.0307 z m -0.16798,-14.53288 c -0.5684,-0.5684 -0.69746,-1.83699 -0.26844,-2.63862 0.3288,-0.61437 2.96203,-1.62288 6.88303,-2.63615 4.71823,-1.21929 8.51176,-1.68383 13.97925,-1.71184 l 4.85113,-0.0248 0.63897,0.74235 c 0.77028,0.8949 0.81422,1.76125 0.13198,2.60177 -0.44842,0.55245 -0.70065,0.61738 -2.18282,0.56193 -5.54645,-0.20751 -14.22849,1.00747 -19.47104,2.7248 -3.21403,1.05283 -3.83779,1.10487 -4.56206,0.3806 z m -0.48304,-8.54987 c -0.71797,-0.76424 -0.74412,-2.01705 -0.0575,-2.75406 0.6521,-0.69995 2.54655,-1.41083 6.09678,-2.28778 6.4444,-1.59184 11.93044,-2.14355 19.2885,-1.93978 4.52342,0.12527 5.21498,0.20287 5.82084,0.65321 0.93054,0.69168 1.07005,2.1344 0.27588,2.85311 -0.53288,0.48225 -1.01568,0.51662 -7.48731,0.53292 -5.19471,0.0131 -7.6426,0.1316 -9.82812,0.47587 -3.54093,0.55776 -8.0925,1.616 -10.56352,2.45601 -2.28703,0.77745 -2.82356,0.77904 -3.54556,0.0105 z m -0.0461,-12.35222 c -0.69555,-0.69554 -0.70193,-2.20848 -0.0122,-2.89817 1.42501,-1.42501 12.50713,-3.79089 19.51668,-4.16655 2.88271,-0.15448 3.02142,-0.13719 3.65229,0.45548 0.85053,0.79904 0.87782,2.07816 0.0605,2.83464 -0.45573,0.42177 -1.09164,0.59045 -2.71198,0.71939 -5.9968,0.47719 -11.84876,1.48699 -16.17352,2.79088 -3.09213,0.93225 -3.63091,0.96513 -4.3317,0.26433 z m -77.690662,19.09606 c 2.32627,-3.02315 3.64843,-3.59456 5.4634,-2.36116 1.25985,0.85616 1.93236,2.33098 2.01047,4.40898 0.0604,1.60727 0.67118,3.72696 1.07389,3.72696 0.094,0 0.0881,-9.07852 -0.013,-20.17448 l -0.18383,-20.17448 5.92015,-5.90853 5.92014,-5.90854 9.89815,-0.0252 c 10.58137,-0.0269 13.17268,0.15332 18.59667,1.29353 6.31383,1.32727 11.757312,3.75794 16.816412,7.50904 l 2.16687,1.60663 2.02756,-1.52598 c 9.01682,-6.78626 20.41409,-9.39532 38.8652,-8.89702 l 6.1329,0.16563 4.71502,4.36523 c 2.59326,2.40088 5.45113,5.04352 6.35081,5.87253 l 1.63579,1.5073 -0.11562,11.34977 c -0.0636,6.24237 -0.16606,15.3086 -0.22769,20.14716 -0.0616,4.83857 -0.0653,8.7974 -0.008,8.7974 0.33865,0 0.72706,-1.3649 0.7534,-2.64748 0.0391,-1.9054 1.22411,-4.3405 2.549,-5.23813 1.88807,-1.27919 3.40941,-0.33546 6.03178,3.74167 l 1.50401,2.33836 0.21381,-1.54461 c 0.11759,-0.84953 0.16179,-4.34257 0.0982,-7.76231 -0.098,-5.27068 -0.2202,-6.76504 -0.80239,-9.81118 -1.80046,-9.42046 -5.04358,-17.40679 -10.22766,-25.18613 -3.19849,-4.79972 -5.33286,-7.40612 -9.37701,-11.4508 -6.32328,-6.32409 -12.67432,-10.85773 -20.38621,-14.55253 -10.6893,-5.12128 -20.87241,-7.26595 -32.80833,-6.90973 -9.547032,0.28491 -17.588612,1.93753 -25.996672,5.34255 -13.1977,5.34468 -24.59678,14.60087 -32.57609,26.4522 -3.87131,5.74988 -6.14805,10.34375 -8.20619,16.55802 -2.36147,7.13009 -3.2844,12.90148 -3.29679,20.61593 -0.008,4.70906 0.42267,10.80985 0.80786,11.45547 0.0691,0.11588 0.87658,-1.0972 1.79434,-2.69573 0.91775,-1.59852 2.21364,-3.61468 2.87976,-4.48035 z"
       id="path1259" />
    <path
       style="fill:#0099ff;fill-opacity:1;stroke-width:0.264583"
       d="M 56.963416,227.26087 C 47.100536,220.19198 38.807029,211.14163 33.233793,201.36576 26.26053,189.13414 22.968298,177.46859 22.966634,164.98555 c -7.94e-4,-5.4484 0.223348,-8.08878 1.089009,-12.83229 2.66932,-14.62687 8.909161,-26.77498 19.281727,-37.53886 13.041306,-13.5333 29.503686,-21.762083 48.286456,-24.136163 5.03191,-0.63602 14.837154,-0.64066 19.446884,-0.009 15.27929,2.093 28.84286,7.844125 40.61708,17.222113 3.50006,2.78775 9.78807,9.13925 12.46267,12.58851 6.16277,7.94773 10.22305,15.90205 13.0285,25.5236 8.57813,29.41943 -3.9853,62.34017 -31.13748,81.59151 -1.46188,1.03649 -2.75482,1.88015 -2.87322,1.87479 -0.18656,-0.008 -3.26363,-4.21747 -3.46374,-4.73795 -0.0404,-0.10512 1.19958,-1.18491 2.75554,-2.39954 l 2.82903,-2.20841 -1.03575,-0.47931 c -5.33054,-2.46677 -10.92699,-5.22369 -12.62658,-6.22009 -2.41735,-1.4172 -4.62807,-3.35377 -5.3421,-4.67964 l -0.50425,-0.93634 -2.12933,0.14757 c -1.17113,0.0812 -3.80466,0.35363 -5.85229,0.60547 -3.68325,0.45302 -3.73755,0.46944 -5.09117,1.53941 -4.93832,3.90352 -8.81286,4.90139 -13.227584,3.40671 -1.90852,-0.64616 -4.47126,-2.05863 -6.53329,-3.60086 -1.03685,-0.77548 -2.82899,-1.19853 -8.35513,-1.9723 l -1.21137,-0.16962 -0.81768,1.31536 c -1.42431,2.29124 -3.3875,3.28152 -17.92624,9.0425 -2.91042,1.15325 -5.4639,2.20751 -5.67441,2.34279 -0.44016,0.28287 -0.34153,0.37798 2.95639,2.8508 1.12447,0.84314 2.0472,1.60289 2.05052,1.68832 0.008,0.19682 -3.4333,4.58554 -3.66117,4.66959 -0.0931,0.0343 -1.59799,-0.96157 -3.34424,-2.21314 z M 101.01654,171.7874 v -33.41482 l -1.654394,-0.96777 c -10.29664,-6.02329 -21.03858,-8.33502 -35.32538,-7.60226 -4.36469,0.22387 -9.89097,0.822 -11.24054,1.21661 -0.43757,0.12794 -0.46302,1.83834 -0.46302,31.11023 v 30.97485 l 1.52135,-0.18216 c 8.60841,-1.03072 17.12146,-0.57536 24.90481,1.33214 7.75957,1.90167 14.46465,5.00249 19.87592,9.19178 1.23692,0.9576 2.278724,1.7445 2.315104,1.74866 0.0364,0.004 0.0661,-15.02911 0.0661,-33.40726 z m -29.209904,3.71316 c -3.04133,-1.92695 -5.76552,-3.82061 -6.05374,-4.20812 -0.91315,-1.22773 0.0692,-3.13189 1.61582,-3.13189 0.69766,0 4.06862,1.93284 7.9797,4.57541 0.79843,0.53946 1.61508,0.98084 1.81478,0.98084 0.19971,0 1.41624,-0.77298 2.70342,-1.71774 3.56997,-2.62029 5.55649,-3.83851 6.25938,-3.83851 0.94437,0 1.54843,0.41149 1.91964,1.30767 0.58014,1.40059 0.2026,1.97058 -2.57555,3.88846 -1.41763,0.97866 -3.79847,2.65067 -5.29075,3.71558 -1.49229,1.06492 -2.74244,1.93523 -2.77813,1.93403 -0.0357,-0.001 -2.55324,-1.57878 -5.59457,-3.50573 z m 3.90085,-6.29263 c -3.98496,-0.7884 -6.63324,-4.24523 -6.37658,-8.32342 0.19694,-3.12933 1.71385,-5.36725 4.49257,-6.62796 4.14636,-1.88121 8.67053,-0.29038 10.56548,3.71514 1.00503,2.12442 1.05738,4.89442 0.13005,6.88157 -0.63048,1.35105 -2.19259,2.97078 -3.53419,3.66455 -0.64653,0.33433 -3.59594,1.02022 -4.02781,0.93667 -0.0824,-0.016 -0.6447,-0.12689 -1.24952,-0.24655 z m 3.06151,-5.13677 c 0.76994,-0.39815 1.61004,-1.81975 1.61004,-2.72449 0,-0.93383 -1.14935,-2.29384 -2.26809,-2.68379 -0.93798,-0.32694 -1.1671,-0.31883 -1.98737,0.0704 -1.6451,0.78065 -2.25678,2.54273 -1.43459,4.13266 0.79111,1.52985 2.48476,2.03014 4.08001,1.2052 z m 8.02675,-15.23594 c -5.33888,-1.34233 -12.5746,-1.93576 -19.43905,-1.5943 -1.97031,0.098 -2.38511,0.0438 -2.84427,-0.37174 -0.71845,-0.65018 -0.72818,-2.2666 -0.0175,-2.90974 1.15326,-1.04369 11.10694,-1.19785 17.20704,-0.2665 4.51569,0.68944 9.2911,1.91461 9.97801,2.55993 0.80469,0.75596 0.78614,1.90717 -0.0441,2.73742 -0.79463,0.79462 -1.10199,0.78478 -4.84011,-0.15507 z m 19.460434,54.95371 c 7.03155,-5.60868 16.76262,-9.39085 28.09787,-10.92078 4.08132,-0.55087 13.20934,-0.57197 17.02762,-0.0394 1.79698,0.25065 2.64083,0.277 2.71394,0.0847 0.0584,-0.15346 0.0755,-14.09027 0.038,-30.97069 l -0.0681,-30.69166 -3.0427,-0.44389 c -7.72272,-1.12662 -17.68384,-1.15839 -24.62895,-0.0785 -3.54717,0.55153 -9.29849,1.98456 -12.07493,3.00867 -2.94028,1.08453 -7.4218,3.21832 -8.91041,4.24251 l -1.21696,0.83729 v 33.1925 c 0,18.25587 0.0659,33.1925 0.1464,33.1925 0.0805,0 0.94373,-0.63598 1.91823,-1.41329 z m 7.36376,-17.39133 c -0.87684,-0.68972 -0.91893,-1.8198 -0.10183,-2.73406 1.28984,-1.44322 10.22624,-3.40344 17.72681,-3.88842 6.08091,-0.39319 7.50177,-0.28084 8.30842,0.65694 0.79924,0.92918 0.78947,1.87212 -0.0279,2.68947 -0.63102,0.63103 -0.76047,0.64944 -4.56568,0.64944 -6.18698,0 -13.68726,1.09304 -18.23379,2.65728 -1.89175,0.65086 -2.24407,0.64738 -3.10604,-0.0307 z m -0.16798,-14.53288 c -0.5684,-0.5684 -0.69746,-1.83699 -0.26844,-2.63862 0.3288,-0.61437 2.96203,-1.62288 6.88303,-2.63615 4.71823,-1.21929 8.51176,-1.68383 13.97925,-1.71184 l 4.85113,-0.0248 0.63897,0.74235 c 0.77028,0.8949 0.81422,1.76125 0.13198,2.60177 -0.44842,0.55245 -0.70065,0.61738 -2.18282,0.56193 -5.54645,-0.20751 -14.22849,1.00747 -19.47104,2.7248 -3.21403,1.05283 -3.83779,1.10487 -4.56206,0.3806 z m -0.48304,-8.54987 c -0.71797,-0.76424 -0.74412,-2.01705 -0.0575,-2.75406 0.6521,-0.69995 2.54655,-1.41083 6.09678,-2.28778 6.4444,-1.59184 11.93044,-2.14355 19.2885,-1.93978 4.52342,0.12527 5.21498,0.20287 5.82084,0.65321 0.93054,0.69168 1.07005,2.1344 0.27588,2.85311 -0.53288,0.48225 -1.01568,0.51662 -7.48731,0.53292 -5.19471,0.0131 -7.6426,0.1316 -9.82812,0.47587 -3.54093,0.55776 -8.0925,1.616 -10.56352,2.45601 -2.28703,0.77745 -2.82356,0.77904 -3.54556,0.0105 z m -0.0461,-12.35222 c -0.69555,-0.69554 -0.70193,-2.20848 -0.0122,-2.89817 1.42501,-1.42501 12.50713,-3.79089 19.51668,-4.16655 2.88271,-0.15448 3.02142,-0.13719 3.65229,0.45548 0.85053,0.79904 0.87782,2.07816 0.0605,2.83464 -0.45573,0.42177 -1.09164,0.59045 -2.71198,0.71939 -5.9968,0.47719 -11.84876,1.48699 -16.17352,2.79088 -3.09213,0.93225 -3.63091,0.96513 -4.3317,0.26433 z m -77.69066,19.09606 c 2.326264,-3.02315 3.64843,-3.59456 5.4634,-2.36116 1.259845,0.85616 1.93235,2.33098 2.010463,4.40898 0.06041,1.60727 0.671184,3.72696 1.073885,3.72696 0.09396,0 0.08811,-9.07852 -0.01299,-20.17448 l -0.183824,-20.17448 5.920142,-5.90853 5.92015,-5.90854 9.89815,-0.0252 c 10.58136,-0.0269 13.17267,0.15332 18.59666,1.29353 6.31384,1.32727 11.75731,3.75794 16.816414,7.50904 l 2.16688,1.60663 2.02756,-1.52598 c 9.01682,-6.78626 20.41409,-9.39532 38.8652,-8.89702 l 6.1329,0.16563 4.71502,4.36523 c 2.59326,2.40088 5.45113,5.04352 6.35081,5.87253 l 1.63579,1.5073 -0.11562,11.34977 c -0.0636,6.24237 -0.16606,15.3086 -0.22769,20.14716 -0.0616,4.83857 -0.0653,8.7974 -0.008,8.7974 0.33865,0 0.72706,-1.3649 0.7534,-2.64748 0.0391,-1.9054 1.22411,-4.3405 2.549,-5.23813 1.88807,-1.27919 3.40941,-0.33546 6.03178,3.74167 l 1.50401,2.33836 0.21381,-1.54461 c 0.11759,-0.84953 0.16179,-4.34257 0.0982,-7.76231 -0.098,-5.27068 -0.2202,-6.76504 -0.80239,-9.81118 -1.80046,-9.42046 -5.04358,-17.40679 -10.22766,-25.18613 -3.19849,-4.79972 -5.33286,-7.40612 -9.37701,-11.4508 -6.32328,-6.32409 -12.67432,-10.85773 -20.38621,-14.55253 -10.6893,-5.121278 -20.87241,-7.265943 -32.808344,-6.909728 -9.54702,0.28491 -17.58861,1.93753 -25.99666,5.342548 -13.19771,5.34468 -24.59678,14.60087 -32.576096,26.4522 -3.871306,5.74988 -6.148038,10.34375 -8.206187,16.55802 -2.361467,7.13009 -3.284397,12.90148 -3.29679,20.61593 -0.0076,4.70906 0.422675,10.80985 0.80786,11.45547 0.06913,0.11588 0.876586,-1.0972 1.794341,-2.69573 0.917755,-1.59852 2.213647,-3.61468 2.879765,-4.48035 z"
       id="path827" />
  </g>
</svg>
